<svg data-v-423bf9ae="" xmlns="http://www.w3.org/2000/svg" viewBox="0 0 376 90" class="iconLeft"><!----><!----><!----><g data-v-423bf9ae="" id="56d695e5-31d9-4f41-b329-c6a37b106efc" fill="white" transform="matrix(6.160163812644722,0,0,6.160163812644722,67.66940109228324,9.455852288710481)"><path d="M7.17 10.50L8.62 10.50L4.44 5.07L8.11 0.90L6.66 0.90L2.38 5.77L2.38 0.90L1.19 0.90L1.19 10.50L2.38 10.50L2.38 7.15L3.68 5.81ZM12.70 10.50L13.96 10.50L17.43 0.90L16.16 0.90L13.93 7.64C13.55 8.81 13.34 9.44 13.34 9.44C13.34 9.44 13.16 8.79 12.74 7.64L10.30 0.90L9.04 0.90ZM28.97 3.78C28.97 2.06 27.87 0.90 25.62 0.90L22.33 0.90L22.33 10.50L23.52 10.50L23.52 6.72L25.69 6.72C27.87 6.72 28.97 5.45 28.97 3.78ZM27.78 3.79C27.78 5.07 27.08 5.77 25.52 5.77L23.52 5.77L23.52 1.86L25.47 1.86C27.02 1.86 27.78 2.56 27.78 3.79ZM33.39 10.64C35.31 10.64 35.91 9.73 36.25 8.90L35.28 8.62C35.01 9.34 34.59 9.79 33.42 9.79C31.91 9.79 31.36 8.64 31.36 7.06L31.36 7.04L36.40 7.04C36.41 6.89 36.43 6.66 36.43 6.52C36.43 4.59 35.81 3.00 33.36 3.00C31.53 3.00 30.16 4.09 30.16 6.76C30.16 9.30 31.22 10.64 33.39 10.64ZM33.36 3.84C34.62 3.84 35.24 4.54 35.24 6.08L35.24 6.17L31.36 6.17C31.44 4.34 32.38 3.84 33.36 3.84ZM44.94 9.73L44.28 9.73C43.97 9.73 43.85 9.60 43.85 9.23L43.85 5.50C43.85 3.85 42.90 3.00 41.17 3.00C39.26 3.00 38.56 3.88 38.37 4.97L39.49 5.10C39.65 4.19 40.18 3.86 41.12 3.86C42.17 3.86 42.74 4.35 42.74 5.46L42.74 6.06L41.36 6.06C39.21 6.06 38.04 6.69 38.04 8.43C38.04 9.60 38.78 10.64 40.38 10.64C41.47 10.64 42.41 10.28 42.78 9.09L42.78 9.45C42.78 10.22 43.26 10.64 43.99 10.64C44.38 10.64 44.67 10.63 44.94 10.60ZM40.64 9.80C39.63 9.80 39.16 9.16 39.16 8.36C39.16 7.18 40.05 6.85 41.34 6.85L42.74 6.85L42.74 7.38C42.74 8.53 42.31 9.80 40.64 9.80ZM49.94 4.07L49.94 3.02C49.73 3.01 49.62 3.01 49.55 3.01C48.51 3.01 47.87 3.61 47.66 4.59L47.60 3.14L46.52 3.14L46.56 4.84L46.56 10.50L47.70 10.50L47.70 6.13C47.70 5.14 48.20 4.06 49.45 4.06C49.59 4.06 49.73 4.06 49.94 4.07Z"></path></g><!----><g data-v-423bf9ae="" id="887f3c41-1c13-47ad-af55-51e9eed21ef5" transform="matrix(1,0,0,1,-22.5,-5)" stroke="none" fill="white"><path d="M77.5 67.449c0-11.035-5.551-16.586-13.232-24.268-2.102-2.102-2.885-4.575-3.642-6.967-1.114-3.521-2.491-7.805-8.53-8.58a24.776 24.776 0 0 0-.592-2.72c8.862-.851 15.817-8.334 15.817-17.415V5h-2.5c-7.872 0-14.544 5.228-16.735 12.393-1.587-2.415-3.765-4.89-6.765-7.14a2.5 2.5 0 0 0-3 4c6.259 4.694 8.158 10.475 8.739 13.563-5.33 1.05-6.625 5.098-7.686 8.449-.757 2.392-1.541 4.865-3.642 6.967C28.05 50.914 22.5 56.465 22.5 67.5 22.5 94.686 49.725 95 50 95v-.051c.276 0 27.5-.314 27.5-27.5zM62 10.321a12.54 12.54 0 0 1-9.357 9.357A12.542 12.542 0 0 1 62 10.321zM50 89.949h-.005V90c-1.012-.006-22.495-.402-22.495-22.5 0-8.965 4.429-13.394 11.768-20.732 2.964-2.964 4.022-6.307 4.873-8.993 1.2-3.789 1.654-5.224 5.755-5.224h.091v-.067l.012-.001.013-.002v.02c4.177.021 4.638 1.406 5.847 5.224.85 2.687 1.908 6.029 4.873 8.993C68.07 54.056 72.5 58.484 72.5 67.449c0 22.123-21.535 22.495-22.5 22.5z"></path></g><!----></svg>