<svg data-v-fde0c5aa="" xmlns="http://www.w3.org/2000/svg" viewBox="0 0 300 300" class="font"><!----><defs data-v-fde0c5aa=""><!----></defs><rect data-v-fde0c5aa="" fill="transparent" x="0" y="0" width="300px" height="300px" class="logo-background-square"></rect><defs data-v-fde0c5aa=""><linearGradient data-v-fde0c5aa="" gradientTransform="rotate(25)" id="8a96b80d-720d-46e3-823e-9845c2fd39b3" x1="0%" y1="0%" x2="100%" y2="0%"><stop data-v-fde0c5aa="" offset="0%" stop-color="#41E296" stop-opacity="1"></stop><stop data-v-fde0c5aa="" offset="100%" stop-color="#00C4EE" stop-opacity="1"></stop></linearGradient></defs><g data-v-fde0c5aa="" id="6bd81cd5-61a1-4da4-a545-f735f72dfd3f" fill="url(#8a96b80d-720d-46e3-823e-9845c2fd39b3)" transform="matrix(4.512820512820513,0,0,4.512820512820513,34.62974333151793,123.96102384420541)"><path d="M7.17 10.50L8.62 10.50L4.44 5.07L8.11 0.90L6.66 0.90L2.38 5.77L2.38 0.90L1.19 0.90L1.19 10.50L2.38 10.50L2.38 7.15L3.68 5.81ZM12.70 10.50L13.96 10.50L17.43 0.90L16.16 0.90L13.93 7.64C13.55 8.81 13.34 9.44 13.34 9.44C13.34 9.44 13.16 8.79 12.74 7.64L10.30 0.90L9.04 0.90ZM28.97 3.78C28.97 2.06 27.87 0.90 25.62 0.90L22.33 0.90L22.33 10.50L23.52 10.50L23.52 6.72L25.69 6.72C27.87 6.72 28.97 5.45 28.97 3.78ZM27.78 3.79C27.78 5.07 27.08 5.77 25.52 5.77L23.52 5.77L23.52 1.86L25.47 1.86C27.02 1.86 27.78 2.56 27.78 3.79ZM33.39 10.64C35.31 10.64 35.91 9.73 36.25 8.90L35.28 8.62C35.01 9.34 34.59 9.79 33.42 9.79C31.91 9.79 31.36 8.64 31.36 7.06L31.36 7.04L36.40 7.04C36.41 6.89 36.43 6.66 36.43 6.52C36.43 4.59 35.81 3.00 33.36 3.00C31.53 3.00 30.16 4.09 30.16 6.76C30.16 9.30 31.22 10.64 33.39 10.64ZM33.36 3.84C34.62 3.84 35.24 4.54 35.24 6.08L35.24 6.17L31.36 6.17C31.44 4.34 32.38 3.84 33.36 3.84ZM44.94 9.73L44.28 9.73C43.97 9.73 43.85 9.60 43.85 9.23L43.85 5.50C43.85 3.85 42.90 3.00 41.17 3.00C39.26 3.00 38.56 3.88 38.37 4.97L39.49 5.10C39.65 4.19 40.18 3.86 41.12 3.86C42.17 3.86 42.74 4.35 42.74 5.46L42.74 6.06L41.36 6.06C39.21 6.06 38.04 6.69 38.04 8.43C38.04 9.60 38.78 10.64 40.38 10.64C41.47 10.64 42.41 10.28 42.78 9.09L42.78 9.45C42.78 10.22 43.26 10.64 43.99 10.64C44.38 10.64 44.67 10.63 44.94 10.60ZM40.64 9.80C39.63 9.80 39.16 9.16 39.16 8.36C39.16 7.18 40.05 6.85 41.34 6.85L42.74 6.85L42.74 7.38C42.74 8.53 42.31 9.80 40.64 9.80ZM49.94 4.07L49.94 3.02C49.73 3.01 49.62 3.01 49.55 3.01C48.51 3.01 47.87 3.61 47.66 4.59L47.60 3.14L46.52 3.14L46.56 4.84L46.56 10.50L47.70 10.50L47.70 6.13C47.70 5.14 48.20 4.06 49.45 4.06C49.59 4.06 49.73 4.06 49.94 4.07Z"></path></g><!----><!----></svg>